# xmcd
#
# Track frame offsets: 
#        150
#        9713
#        23412
#        35918
#        50176
#        62395
#        73194
#        86433
#        99961
#        111611
#        125284
#        138764
#        162739
#        177711
#        194938
#        212818
#        230134
#        245935
#        258558
#        271508
#        282824
#        297972
#        313624
#        328207
#        340889
#
# Disc length: 4719 seconds
#
# Revision: 0
# Processed by: cddbd v1.5.2PL0 Copyright (c) Steve Scherf et al.
# Submitted via: ExactAudioCopy v0.95b2
#
DISCID=91126d19
DTITLE=The Reasonable Band - Live At The Hungry Farmer 9 25 82
DYEAR=1982
DGENRE=Bluegrass
TTITLE0=Panhandle Country
TTITLE1=I Wonder Why You Said Goodbye
TTITLE2=Just Because
TTITLE3=Windy Mountain
TTITLE4=Foggy Mountain Breakdown
TTITLE5=You're Not A Drop In The Bucket
TTITLE6=If That's The Way You Feel
TTITLE7=Mind Your Own Business
TTITLE8=On and On
TTITLE9=Blue Moon Of Kentucky
TTITLE10=Object Of My Affection
TTITLE11=Sweet Georgia Brown
TTITLE12=I Can't Go On Lovin' You
TTITLE13=Dark Hollow
TTITLE14=Roll In My Sweet Baby's Arms
TTITLE15=Train 45
TTITLE16=Black Mountain Rag
TTITLE17=Pain In My Heart
TTITLE18=Little Cabin Home On The Hill
TTITLE19=High Country Breakdown
TTITLE20=Better Times 'A Comin'
TTITLE21=Old Joe Clark
TTITLE22=Down The Road
TTITLE23=Uncle Penn
TTITLE24=Durham's Reel
EXTD=
EXTT0=
EXTT1=
EXTT2=
EXTT3=
EXTT4=
EXTT5=
EXTT6=
EXTT7=
EXTT8=
EXTT9=
EXTT10=
EXTT11=
EXTT12=
EXTT13=
EXTT14=
EXTT15=
EXTT16=
EXTT17=
EXTT18=
EXTT19=
EXTT20=
EXTT21=
EXTT22=
EXTT23=
EXTT24=
PLAYORDER=
